<svg width="34" height="34" viewBox="0 0 34 34" fill="none" xmlns="http://www.w3.org/2000/svg">
<path d="M17 0C26.3888 0 34 7.61116 34 17C34 26.3888 26.3888 34 17 34C7.61116 34 0 26.3888 0 17C0 7.61116 7.61116 0 17 0ZM20.1299 10.002C18.957 10.0414 17.8183 10.6232 16.999 11.4414C16.1797 10.6233 15.0411 10.0414 13.8682 10.002C12.6953 9.96262 11.5396 10.4463 10.6514 11.7178C9.66837 13.1373 9.8232 15.5034 10.9443 17.8789C12.0483 20.2643 14.1272 22.62 16.999 24C19.8709 22.62 21.9501 20.2644 23.0713 17.8789C24.1752 15.5033 24.3298 13.1373 23.3467 11.7178C22.4583 10.4461 21.3028 9.96252 20.1299 10.002Z" fill="#3E3E3E"/>
</svg>
