<svg width="24" height="24" viewBox="0 0 24 24" fill="none" xmlns="http://www.w3.org/2000/svg">
<path d="M14.85 3.94688V7.74687H13.35V3.94688C13.35 3.67688 13.11 3.54688 12.95 3.54688C12.9 3.54688 12.85 3.55687 12.8 3.57687L4.87 6.56688C4.34 6.76688 4 7.26687 4 7.83687V8.50688C3.09 9.18687 2.5 10.2769 2.5 11.5069V7.83687C2.5 6.64687 3.23 5.58688 4.34 5.16688L12.28 2.16688C12.5 2.08688 12.73 2.04688 12.95 2.04688C13.95 2.04688 14.85 2.85688 14.85 3.94688Z" fill="#3E3E3E"/>
<path d="M21.4968 14.5V15.5C21.4968 15.77 21.2868 15.99 21.0068 16H19.5468C19.0168 16 18.5368 15.61 18.4968 15.09C18.4668 14.78 18.5868 14.49 18.7868 14.29C18.9668 14.1 19.2168 14 19.4868 14H20.9968C21.2868 14.01 21.4968 14.23 21.4968 14.5Z" fill="#3E3E3E"/>
<path d="M19.48 12.95H20.5C21.05 12.95 21.5 12.5 21.5 11.95V11.51C21.5 9.44 19.81 7.75 17.74 7.75H6.26C5.41 7.75 4.63 8.03 4 8.51C3.09 9.19 2.5 10.28 2.5 11.51V18.24C2.5 20.31 4.19 22 6.26 22H17.74C19.81 22 21.5 20.31 21.5 18.24V18.05C21.5 17.5 21.05 17.05 20.5 17.05H19.63C18.67 17.05 17.75 16.46 17.5 15.53C17.29 14.77 17.54 14.04 18.04 13.55C18.41 13.17 18.92 12.95 19.48 12.95ZM14 12.75H7C6.59 12.75 6.25 12.41 6.25 12C6.25 11.59 6.59 11.25 7 11.25H14C14.41 11.25 14.75 11.59 14.75 12C14.75 12.41 14.41 12.75 14 12.75Z" fill="#3E3E3E"/>
</svg>
