<svg width="35" height="35" viewBox="0 0 35 35" fill="none" xmlns="http://www.w3.org/2000/svg">
<path d="M17.5 0.5C8.116 0.5 0.5 8.116 0.5 17.5C0.5 26.884 8.116 34.5 17.5 34.5C26.884 34.5 34.5 26.884 34.5 17.5C34.5 8.116 26.884 0.5 17.5 0.5ZM17.5 28.55C16.089 28.55 14.95 27.411 14.95 26H20.05C20.05 27.411 18.911 28.55 17.5 28.55ZM26 24.3H9V22.6L10.7 20.9V16.463C10.7 12.859 12.451 9.799 15.8 9V8.15C15.8 7.181 16.531 6.45 17.5 6.45C18.469 6.45 19.2 7.181 19.2 8.15V9C22.549 9.799 24.3 12.876 24.3 16.463V20.9L26 22.6V24.3Z" fill="#3E3E3E"/>
</svg>
