<svg width="24" height="24" viewBox="0 0 24 24" fill="none" xmlns="http://www.w3.org/2000/svg">
<path d="M13 16L16 13M16 13L13 10M16 13H5M5 8.248V8.2C5 7.08 5 6.52 5.218 6.092C5.41 5.715 5.715 5.41 6.092 5.218C6.52 5 7.08 5 8.2 5H17.8C18.92 5 19.48 5 19.907 5.218C20.284 5.41 20.59 5.715 20.782 6.092C21 6.519 21 7.079 21 8.197V17.804C21 18.922 21 19.481 20.782 19.908C20.59 20.2845 20.2837 20.5904 19.907 20.782C19.48 21 18.921 21 17.803 21H8.197C7.079 21 6.519 21 6.092 20.782C5.71569 20.5903 5.40974 20.2843 5.218 19.908C5 19.48 5 18.92 5 17.8V17.75" stroke="white" stroke-width="2" stroke-linecap="round" stroke-linejoin="round"/>
</svg>
