<svg width="22" height="22" viewBox="0 0 22 22" fill="none" xmlns="http://www.w3.org/2000/svg">
<path d="M7.67188 4.99967V3.99975C7.67188 3.20417 8.02273 2.44117 8.64724 1.87861C9.27176 1.31604 10.1188 1 11.002 1C11.8852 1 12.7322 1.31604 13.3567 1.87861C13.9813 2.44117 14.3321 3.20417 14.3321 3.99975V4.99967" fill="white"/>
<path d="M7.67188 4.99967V3.99975C7.67188 3.20417 8.02273 2.44117 8.64724 1.87861C9.27176 1.31604 10.1188 1 11.002 1C11.8852 1 12.7322 1.31604 13.3567 1.87861C13.9813 2.44117 14.3321 3.20417 14.3321 3.99975V4.99967" stroke="white" stroke-width="1.5" stroke-linecap="round"/>
<path d="M1.83274 19.5538C3.16479 20.9987 5.6424 20.9987 10.5998 20.9987H11.3991C16.3565 20.9987 18.8352 20.9987 20.1673 19.5538M1.83274 19.5538C0.500695 18.1079 0.958031 15.9141 1.87159 11.5245C2.52097 8.40472 2.8451 6.84385 4.07835 5.92192M20.1673 19.5538C21.4993 18.1079 21.042 15.9141 20.1284 11.5245C19.479 8.40472 19.1538 6.84385 17.9205 5.92192M17.9205 5.92192C16.6884 5 14.9245 5 11.4002 5H10.5987C7.07435 5 5.3116 5 4.07835 5.92192" fill="white" stroke="white" stroke-width="1.5"/>
<path d="M10.499 15.4922C10.3916 15.4542 10.2885 15.4066 10.1865 15.3496L10.3232 15.1826L10.3223 15.1816L10.499 14.9658V15.4922ZM11.499 14.9688L11.6729 15.1816L11.8096 15.3486C11.708 15.4054 11.6061 15.4543 11.499 15.4922V14.9688ZM8.11914 12.6982C8.14149 12.7483 8.16649 12.7982 8.19336 12.8467C8.30981 13.0567 8.48006 13.28 8.70508 13.5146V13.5156C8.99902 13.8214 9.35314 14.1087 9.7002 14.3623L9.35449 14.7881L9.34668 14.7979C9.01175 14.5593 8.66108 14.283 8.34863 13.9834L8.16797 13.8037C7.84242 13.4645 7.56676 13.0877 7.42969 12.6982H8.11914ZM14.5684 12.6982C14.4313 13.0883 14.1547 13.4655 13.8291 13.8047C13.4756 14.173 13.0509 14.5121 12.6494 14.7979L12.2959 14.3623C12.6432 14.1085 12.9975 13.8209 13.291 13.5146L13.29 13.5137C13.5156 13.279 13.6871 13.0567 13.8037 12.8467C13.8307 12.7981 13.8555 12.7484 13.8779 12.6982H14.5684ZM11.9893 10.3477C12.4559 10.2174 12.9246 10.2173 13.3496 10.3516H13.3506C14.0069 10.5586 14.455 11.0501 14.6055 11.6982H13.9297C13.8836 11.536 13.8148 11.3906 13.7236 11.2646C13.5487 11.023 13.3176 10.8827 13.1016 10.8145C12.823 10.7265 12.4684 10.7232 12.083 10.8574L12.3213 10.6348L11.9893 10.3477ZM8.64746 10.3516C9.07222 10.2174 9.54049 10.2177 10.0068 10.3477L9.67578 10.6348L9.91309 10.8574C9.60979 10.752 9.32586 10.7314 9.08301 10.7705L8.89648 10.8145C8.67953 10.8829 8.44832 11.024 8.27344 11.2656C8.1824 11.3915 8.11348 11.5363 8.06738 11.6982H7.3916C7.54206 11.0501 7.9902 10.5586 8.64648 10.3516H8.64746Z" fill="white" stroke="white"/>
</svg>
