<svg width="14" height="16" viewBox="0 0 14 16" fill="none" xmlns="http://www.w3.org/2000/svg">
<path d="M13 15V13.3333C13 12.4493 12.6839 11.6014 12.1213 10.9763C11.5587 10.3512 10.7956 10 10 10H4C3.20435 10 2.44129 10.3512 1.87868 10.9763C1.31607 11.6014 1 12.4493 1 13.3333V15" stroke="url(#paint0_linear_1510_12821)" stroke-width="1.6" stroke-linecap="round" stroke-linejoin="round"/>
<path d="M7 7C8.65685 7 10 5.65685 10 4C10 2.34315 8.65685 1 7 1C5.34315 1 4 2.34315 4 4C4 5.65685 5.34315 7 7 7Z" stroke="url(#paint1_linear_1510_12821)" stroke-width="1.6" stroke-linecap="round" stroke-linejoin="round"/>
<defs>
<linearGradient id="paint0_linear_1510_12821" x1="2.42012" y1="10.913" x2="12.1801" y2="12.9092" gradientUnits="userSpaceOnUse">
<stop stop-color="#F45E29"/>
<stop offset="1" stop-color="#FB9B2B"/>
</linearGradient>
<linearGradient id="paint1_linear_1510_12821" x1="4.71006" y1="2.09565" x2="9.75754" y2="2.52578" gradientUnits="userSpaceOnUse">
<stop stop-color="#F45E29"/>
<stop offset="1" stop-color="#FB9B2B"/>
</linearGradient>
</defs>
</svg>
