<svg width="22" height="22" viewBox="0 0 22 22" fill="none" xmlns="http://www.w3.org/2000/svg">
<path d="M1 18.1429V19.5714C1 19.9503 1.21071 20.3137 1.58579 20.5816C1.96086 20.8495 2.46957 21 3 21H19C19.5304 21 20.0391 20.8495 20.4142 20.5816C20.7893 20.3137 21 19.9503 21 19.5714V18.1429C21 17.0062 20.3679 15.9161 19.2426 15.1124C18.1174 14.3087 16.5913 13.8571 15 13.8571H7C5.4087 13.8571 3.88258 14.3087 2.75736 15.1124C1.63214 15.9161 1 17.0062 1 18.1429ZM17 5.28571C17 6.42236 16.3679 7.51245 15.2426 8.31617C14.1174 9.1199 12.5913 9.57143 11 9.57143C9.4087 9.57143 7.88258 9.1199 6.75736 8.31617C5.63214 7.51245 5 6.42236 5 5.28571C5 4.14907 5.63214 3.05898 6.75736 2.25526C7.88258 1.45153 9.4087 1 11 1C12.5913 1 14.1174 1.45153 15.2426 2.25526C16.3679 3.05898 17 4.14907 17 5.28571Z" stroke="white" stroke-width="2"/>
</svg>
