<svg width="20" height="20" viewBox="0 0 20 20" fill="none" xmlns="http://www.w3.org/2000/svg">
<path d="M7.9602 18C7.9602 19.1 7.06468 20 5.97015 20C4.87562 20 3.9801 19.1 3.9801 18C3.9801 16.9 4.87562 16 5.97015 16C7.06468 16 7.9602 16.9 7.9602 18ZM15.9204 16C14.8259 16 13.9303 16.9 13.9303 18C13.9303 19.1 14.8259 20 15.9204 20C17.0149 20 17.9104 19.1 17.9104 18C17.9104 16.9 17.0149 16 15.9204 16ZM6.16915 12.8V12.7L7.06468 11H14.4279C15.1244 11 15.8209 10.6 16.1194 10L20 3L18.3085 2L14.4279 9H7.46269L3.28358 0H0V2H1.99005L5.57214 9.6L4.1791 12C4.0796 12.3 3.9801 12.6 3.9801 13C3.9801 14.1 4.87562 15 5.97015 15H17.9104V13H6.36816C6.26866 13 6.16915 12.9 6.16915 12.8Z" fill="white"/>
</svg>
