<svg width="210" height="154" viewBox="0 0 210 154" fill="none" xmlns="http://www.w3.org/2000/svg">
<path d="M120 54C117.348 54 114.804 55.0533 112.929 56.9287C111.053 58.8041 110 61.3478 110 64V124C110 126.652 111.053 129.196 112.929 131.071C114.804 132.947 117.348 134 120 134H150.5L169 152.55C170 153.5 171.25 154 172.5 154H175C176.326 154 177.597 153.473 178.535 152.535C179.473 151.597 180 150.326 180 149V134H200C202.652 134 205.196 132.947 207.071 131.071C208.947 129.196 210 126.652 210 124V64C210 61.3478 208.947 58.8041 207.071 56.9287C205.196 55.0533 202.652 54 200 54H120ZM182.29 84.0889C182.535 84.0897 182.778 84.1398 183.004 84.2363L184.154 84.7295C185.311 85.321 186.203 86.7768 185.228 89.082C182.478 95.5053 178.137 101.871 173.001 107.007C168.012 111.996 161.638 116.312 155.054 119.163C152.72 120.168 151.253 119.237 150.707 118.133L150.662 118.032L150.226 116.995C150.13 116.769 150.081 116.526 150.081 116.28C150.082 116.035 150.131 115.792 150.228 115.566C150.324 115.341 150.464 115.137 150.641 114.967C150.817 114.797 151.027 114.664 151.256 114.576C152.575 114.071 153.795 113.598 154.298 113.387C159.605 111.152 164.443 107.808 169.087 103.164C173.716 98.5346 177.27 93.4233 179.35 88.3906C179.497 88.0423 180.091 86.5133 180.579 85.2559C180.668 85.0272 180.802 84.8184 180.973 84.6426C181.144 84.4667 181.349 84.3276 181.575 84.2324C181.801 84.1374 182.045 84.0881 182.29 84.0889ZM138.533 69.8594C139.202 69.7058 139.901 69.7444 140.548 69.9717C147.502 72.392 163.281 78.2692 171.765 81.4336C173.331 82.0178 174.728 82.5403 175.755 82.9209C175.981 83.0048 176.189 83.1316 176.365 83.2959C176.542 83.4604 176.684 83.6592 176.784 83.8789C176.884 84.0988 176.94 84.3368 176.947 84.5781C176.955 84.8194 176.913 85.0605 176.827 85.2861C176.728 85.5466 176.659 85.7243 176.633 85.7842C174.212 91.2853 170.791 96.2893 166.544 100.542C162.332 104.754 156.956 108.428 151.797 110.624L151.782 110.63C151.709 110.661 151.527 110.737 151.268 110.843C151.041 110.936 150.797 110.983 150.552 110.979C150.306 110.976 150.063 110.923 149.839 110.824C149.614 110.725 149.412 110.582 149.244 110.402C149.076 110.223 148.946 110.011 148.862 109.78L135.911 74.6387L135.906 74.623C135.677 73.9754 135.636 73.2762 135.789 72.6064C135.942 71.9367 136.282 71.3237 136.77 70.8398C137.253 70.3529 137.865 70.013 138.533 69.8594ZM154.868 94.5703C154.172 94.3083 153.413 94.2639 152.691 94.4443C151.97 94.6248 151.321 95.0212 150.83 95.5801C150.245 96.2472 149.922 97.1047 149.922 97.9922C149.922 98.8797 150.245 99.7372 150.83 100.404C151.321 100.963 151.97 101.36 152.691 101.54C153.413 101.72 154.172 101.677 154.868 101.415C155.564 101.153 156.164 100.685 156.587 100.073C157.01 99.4619 157.236 98.7356 157.236 97.9922C157.236 97.2487 157.009 96.5225 156.586 95.9111C156.163 95.2999 155.564 94.8324 154.868 94.5703ZM166.504 85.5195C165.808 85.2575 165.048 85.2131 164.327 85.3936C163.606 85.5741 162.957 85.9707 162.467 86.5293C161.881 87.1964 161.559 88.0539 161.559 88.9414C161.559 89.8289 161.881 90.6864 162.467 91.3535C162.957 91.9123 163.607 92.3078 164.328 92.4883C165.049 92.6687 165.808 92.6261 166.504 92.3643C167.2 92.1023 167.8 91.6338 168.223 91.0225C168.646 90.4111 168.873 89.6849 168.873 88.9414C168.873 88.1981 168.646 87.4727 168.223 86.8613C167.8 86.2499 167.2 85.7816 166.504 85.5195ZM150.989 80.3467C150.293 80.0846 149.533 80.0412 148.812 80.2217C148.091 80.4022 147.441 80.7988 146.951 81.3574C146.366 82.0246 146.043 82.883 146.043 83.7705C146.043 84.6578 146.366 85.5147 146.951 86.1816C147.442 86.7405 148.091 87.1369 148.812 87.3174C149.534 87.4978 150.293 87.4534 150.989 87.1914C151.685 86.9293 152.284 86.4618 152.707 85.8506C153.13 85.2394 153.357 84.5138 153.357 83.7705C153.357 83.027 153.13 82.2999 152.707 81.6885C152.284 81.0773 151.685 80.6087 150.989 80.3467Z" fill="#FB9B2B"/>
<path d="M90 0C92.6522 0 95.1959 1.05335 97.0713 2.92871C98.9467 4.80407 100 7.34784 100 10V70C100 72.6522 98.9467 75.1959 97.0713 77.0713C95.1959 78.9467 92.6522 80 90 80H59.5L41 98.5498C40 99.4998 38.75 100 37.5 100H35C33.6739 100 32.4025 99.4728 31.4648 98.5352C30.5272 97.5975 30 96.3261 30 95V80H10C7.34784 80 4.80407 78.9467 2.92871 77.0713C1.05335 75.1959 0 72.6522 0 70V10C0 7.34784 1.05335 4.80407 2.92871 2.92871C4.80407 1.05335 7.34784 0 10 0H90ZM37.0996 43.6484C27.5968 43.6485 19.9004 47.5082 19.9004 52.2734C19.9004 57.0387 19.9 60.8984 37.0996 60.8984C54.2996 60.8984 54.2998 57.0388 54.2998 52.2734C54.2998 47.5081 46.6026 43.6484 37.0996 43.6484ZM67.2002 49.0391C66.345 49.0391 65.5247 49.3799 64.9199 49.9863C64.3151 50.5929 63.9746 51.4156 63.9746 52.2734C63.9746 53.1312 64.3151 53.954 64.9199 54.5605C65.5247 55.167 66.345 55.5078 67.2002 55.5078H80.0996C80.9549 55.5078 81.7761 55.1671 82.3809 54.5605C82.9855 53.954 83.3252 53.1312 83.3252 52.2734C83.3252 51.4157 82.9855 50.5929 82.3809 49.9863C81.7761 49.3798 80.9549 49.0391 80.0996 49.0391H67.2002ZM62.9004 36.1016C62.0451 36.1016 61.2239 36.4423 60.6191 37.0488C60.0145 37.6554 59.6748 38.4782 59.6748 39.3359C59.6748 40.1937 60.0145 41.0165 60.6191 41.623C61.2239 42.2296 62.0451 42.5703 62.9004 42.5703H80.0996C80.9549 42.5703 81.7761 42.2296 82.3809 41.623C82.9855 41.0165 83.3252 40.1937 83.3252 39.3359C83.3252 38.4782 82.9855 37.6554 82.3809 37.0488C81.7761 36.4423 80.9549 36.1016 80.0996 36.1016H62.9004ZM37.0996 17.7734C34.8189 17.7735 32.6313 18.6824 31.0186 20.2998C29.4059 21.9173 28.5 24.1111 28.5 26.3984C28.5 28.6858 29.4059 30.8796 31.0186 32.4971C32.6313 34.1145 34.8189 35.0233 37.0996 35.0234C39.3804 35.0234 41.5679 34.1145 43.1807 32.4971C44.7935 30.8796 45.7002 28.6859 45.7002 26.3984C45.7002 24.1109 44.7935 21.9173 43.1807 20.2998C41.5679 18.6824 39.3804 17.7734 37.0996 17.7734ZM58.5996 23.1641C57.7444 23.1642 56.924 23.5049 56.3193 24.1113C55.7146 24.7179 55.375 25.5407 55.375 26.3984C55.375 27.2562 55.7146 28.079 56.3193 28.6855C56.924 29.292 57.7444 29.6327 58.5996 29.6328H80.0996C80.9549 29.6328 81.7761 29.2921 82.3809 28.6855C82.9855 28.079 83.3252 27.2562 83.3252 26.3984C83.3252 25.5407 82.9855 24.7179 82.3809 24.1113C81.7761 23.5048 80.9549 23.1641 80.0996 23.1641H58.5996Z" fill="#FB9B2B"/>
</svg>
