<svg width="41" height="39" viewBox="0 0 41 39" fill="none" xmlns="http://www.w3.org/2000/svg">
<path d="M17.49 22.2623L19.325 21.2436L16.9453 19.3203L17.49 22.2623Z" fill="#DC0301"/>
<path d="M40.1646 19.4793C40.1646 19.0456 39.9427 18.6644 39.6051 18.4253L39.6123 18.4135L34.857 15.7759L37.5942 11.2208L37.585 11.2154C37.6713 11.0277 37.7104 10.823 37.6992 10.618C37.6879 10.4131 37.6266 10.2135 37.5202 10.0355C37.4128 9.85779 37.2633 9.70689 37.0839 9.59503C36.9045 9.48317 36.7002 9.41349 36.4875 9.39164V9.3789H30.9958V4.11777H30.9846C30.9616 3.91369 30.889 3.71767 30.7726 3.54555C30.6561 3.37343 30.4992 3.23005 30.3144 3.12699C30.129 3.02425 29.9208 2.96514 29.707 2.95449C29.4932 2.94385 29.2799 2.98197 29.0843 3.06574L29.0777 3.05447L24.2424 5.73673L21.5649 1.28067L21.5552 1.28606C21.4291 1.12036 21.2642 0.985504 21.0738 0.892379C20.8834 0.799255 20.6729 0.750481 20.4592 0.75C20.0079 0.75 19.6106 0.96315 19.3622 1.28753L19.35 1.28067L16.6281 5.81023L11.9412 3.21029L11.9356 3.2196C11.7401 3.13669 11.5271 3.09912 11.3138 3.10993C11.1005 3.12074 10.8928 3.17963 10.7075 3.28183C10.5224 3.38498 10.3653 3.52856 10.2488 3.70096C10.1322 3.87335 10.0596 4.0697 10.0368 4.27408H10.0231V9.50434H4.61096V9.51463C4.39855 9.5367 4.19453 9.60648 4.01538 9.71833C3.83624 9.83019 3.687 9.98097 3.57974 10.1585C3.47328 10.3367 3.41198 10.5364 3.40082 10.7416C3.38966 10.9467 3.42894 11.1515 3.51548 11.3394L3.50375 11.3463L6.17921 15.7989L1.38827 18.4566L1.39388 18.466C1.22142 18.5871 1.08105 18.7456 0.984129 18.9285C0.887204 19.1114 0.836438 19.3137 0.835938 19.519C0.835938 19.9526 1.05779 20.3343 1.39541 20.573L1.38827 20.5847L6.14351 23.2224L3.40634 27.7774L3.41552 27.7823C3.32922 27.9701 3.29012 28.1747 3.30137 28.3797C3.31262 28.5847 3.37391 28.7842 3.48029 28.9622C3.5877 29.14 3.73718 29.2908 3.9166 29.4027C4.09603 29.5146 4.30036 29.5842 4.51304 29.6061V29.6193H10.0042V34.88H10.0154C10.0623 35.2798 10.2954 35.6542 10.6856 35.8708C10.8712 35.9731 11.0793 36.032 11.293 36.0427C11.5067 36.0533 11.7201 36.0154 11.9157 35.932L11.9223 35.9433L16.7576 33.261L19.4351 37.7171L19.4448 37.7117C19.5709 37.8774 19.7358 38.0122 19.9262 38.1054C20.1166 38.1985 20.3272 38.2473 20.5408 38.2477C20.9922 38.2477 21.3894 38.0346 21.6378 37.7107L21.6495 37.7171L24.3714 33.1875L29.0588 35.7874L29.0644 35.7781C29.2599 35.8611 29.4729 35.8986 29.6862 35.8878C29.8995 35.877 30.1072 35.8181 30.2925 35.7159C30.4778 35.6131 30.6352 35.4696 30.7518 35.2971C30.8683 35.1247 30.9408 34.9282 30.9632 34.7237H30.9769V29.4939H36.3896V29.4836C36.602 29.4615 36.806 29.3917 36.9851 29.2799C37.1643 29.168 37.3135 29.0173 37.4208 28.8397C37.5272 28.6616 37.5885 28.4618 37.5997 28.2567C37.6109 28.0515 37.5716 27.8467 37.485 27.6588L37.4968 27.6525L34.8213 23.1998L39.6123 20.5421L39.6066 20.5328C39.7792 20.4116 39.9196 20.253 40.0165 20.07C40.1134 19.887 40.1642 19.6846 40.1646 19.4793ZM14.1439 26.9454C13.0066 27.5765 11.9754 27.6628 11.0987 27.4364L11.2216 26.1149C11.8856 26.2996 12.7439 26.2986 13.5548 25.8483C14.252 25.4617 14.4004 24.9834 14.202 24.6537C13.6109 23.6707 10.6361 26.2364 9.35753 24.1093C8.79245 23.1685 9.17036 21.9185 10.556 21.1502C11.4909 20.6313 12.4303 20.4725 13.3233 20.666L13.1657 21.9513C12.4349 21.7926 11.6826 21.9494 11.0829 22.2816C10.5535 22.5756 10.3857 22.9622 10.5897 23.3018C11.1247 24.1916 14.1418 21.7161 15.4097 23.8256C16.0314 24.859 15.7239 26.0698 14.1439 26.9454ZM21.2548 22.8657L20.3093 22.1135L17.7863 23.513L17.9908 24.6762L16.5705 25.4636L15.4408 18.5532L17.0111 17.6824L22.6752 22.0782L21.2548 22.8657ZM23.1688 21.8043L19.7717 16.1507L21.0335 15.4505L23.7941 20.0442L26.2819 18.6644L26.9189 19.7243L23.1688 21.8043ZM27.765 19.2549L24.3678 13.6017L28.5315 11.2914L29.168 12.3507L26.2574 13.9658L26.9704 15.1526L29.8192 13.5718L30.4557 14.6312L27.6069 16.2115L28.381 17.5002L31.2921 15.8851L31.9291 16.9445L27.765 19.2549Z" fill="#DC0301"/>
</svg>
