<svg width="19" height="17" viewBox="0 0 19 17" fill="none" xmlns="http://www.w3.org/2000/svg">
<path d="M8.6784 2.59375H2.88253C2.44334 2.59375 2.02214 2.75179 1.71158 3.03309C1.40103 3.31439 1.22656 3.69593 1.22656 4.09375V14.5938C1.22656 14.9916 1.40103 15.3731 1.71158 15.6544C2.02214 15.9357 2.44334 16.0938 2.88253 16.0938H14.4743C14.9135 16.0938 15.3347 15.9357 15.6452 15.6544C15.9558 15.3731 16.1302 14.9916 16.1302 14.5938V9.34375" stroke="#3E3E3E" stroke-width="1.5" stroke-linecap="round" stroke-linejoin="round"/>
<path d="M14.8891 1.46599C15.2185 1.16762 15.6653 1 16.1311 1C16.5969 1 17.0437 1.16762 17.3731 1.46599C17.7025 1.76436 17.8875 2.16903 17.8875 2.59099C17.8875 3.01295 17.7025 3.41762 17.3731 3.71599L9.50724 10.841L6.19531 11.591L7.02329 8.59099L14.8891 1.46599Z" stroke="#3E3E3E" stroke-width="1.5" stroke-linecap="round" stroke-linejoin="round"/>
</svg>
