<svg width="16" height="18" viewBox="0 0 16 18" fill="none" xmlns="http://www.w3.org/2000/svg">
<path d="M3.36434 1L1 4.15245V15.186C1 15.6041 1.16607 16.005 1.46167 16.3006C1.75727 16.5962 2.15819 16.7623 2.57623 16.7623H13.6098C14.0279 16.7623 14.4288 16.5962 14.7244 16.3006C15.02 16.005 15.186 15.6041 15.186 15.186V4.15245L12.8217 1H3.36434Z" stroke="#DC0301" stroke-width="1.5" stroke-linecap="round" stroke-linejoin="round"/>
<path d="M1 4.15625H15.186" stroke="#DC0301" stroke-width="1.5" stroke-linecap="round" stroke-linejoin="round"/>
<path d="M11.2424 7.30469C11.2424 8.14077 10.9103 8.94261 10.3191 9.53381C9.72787 10.125 8.92604 10.4571 8.08995 10.4571C7.25387 10.4571 6.45203 10.125 5.86083 9.53381C5.26963 8.94261 4.9375 8.14077 4.9375 7.30469" stroke="#DC0301" stroke-width="1.5" stroke-linecap="round" stroke-linejoin="round"/>
</svg>
