<svg width="24" height="24" viewBox="0 0 24 24" fill="none" xmlns="http://www.w3.org/2000/svg">
<path d="M19.1709 6.64344C18.7409 4.47344 17.1309 3.52344 14.8909 3.52344H6.11094C3.47094 3.52344 1.71094 4.84344 1.71094 7.92344V13.0734C1.71094 15.2934 2.62094 16.5934 4.12094 17.1534C4.34094 17.2334 4.58094 17.3034 4.83094 17.3434C5.23094 17.4334 5.66094 17.4734 6.11094 17.4734H14.9009C17.5409 17.4734 19.3009 16.1534 19.3009 13.0734V7.92344C19.3009 7.45344 19.2609 7.03344 19.1709 6.64344ZM5.53094 12.0034C5.53094 12.4134 5.19094 12.7534 4.78094 12.7534C4.37094 12.7534 4.03094 12.4134 4.03094 12.0034V9.00344C4.03094 8.59344 4.37094 8.25344 4.78094 8.25344C5.19094 8.25344 5.53094 8.59344 5.53094 9.00344V12.0034ZM10.5009 13.1434C9.04094 13.1434 7.86094 11.9634 7.86094 10.5034C7.86094 9.04344 9.04094 7.86344 10.5009 7.86344C11.9609 7.86344 13.1409 9.04344 13.1409 10.5034C13.1409 11.9634 11.9609 13.1434 10.5009 13.1434ZM16.9609 12.0034C16.9609 12.4134 16.6209 12.7534 16.2109 12.7534C15.8009 12.7534 15.4609 12.4134 15.4609 12.0034V9.00344C15.4609 8.59344 15.8009 8.25344 16.2109 8.25344C16.6209 8.25344 16.9609 8.59344 16.9609 9.00344V12.0034Z" fill="#176C50"/>
<path d="M22.3017 10.9222V16.0722C22.3017 19.1522 20.5417 20.4822 17.8917 20.4822H9.11172C8.36172 20.4822 7.69172 20.3722 7.11172 20.1522C6.64172 19.9822 6.23172 19.7322 5.90172 19.4122C5.72172 19.2422 5.86172 18.9722 6.11172 18.9722H14.8917C18.5917 18.9722 20.7917 16.7722 20.7917 13.0822V7.92223C20.7917 7.68223 21.0617 7.53223 21.2317 7.71223C21.9117 8.43223 22.3017 9.48223 22.3017 10.9222Z" fill="#176C50"/>
</svg>
