<svg width="24" height="24" viewBox="0 0 24 24" fill="none" xmlns="http://www.w3.org/2000/svg">
<path d="M5.34375 9H9.68661" stroke="white" stroke-width="1.5" stroke-linecap="round" stroke-linejoin="round"/>
<path d="M21.4502 10.1406H18.6251C16.6871 10.1406 15.1172 11.6755 15.1172 13.5692C15.1172 15.4629 16.6882 16.9978 18.624 16.9978H21.4502C21.5414 16.9978 21.5859 16.9978 21.6239 16.9955C22.2102 16.9578 22.677 16.5018 22.715 15.9292C22.7172 15.8926 22.7172 15.8481 22.7172 15.7601V11.3783C22.7172 11.2903 22.7172 11.2458 22.715 11.2092C22.6759 10.6366 22.2102 10.1806 21.6239 10.1429C21.5859 10.1406 21.5414 10.1406 21.4502 10.1406Z" stroke="white" stroke-width="1.5"/>
<path d="M21.5906 10.144C21.5059 8.00455 21.2345 6.69255 20.3561 5.76912C19.0847 4.42969 17.0371 4.42969 12.9429 4.42969H9.68571C5.59149 4.42969 3.54383 4.42969 2.27246 5.76912C1.00109 7.10855 1 9.26284 1 13.5726C1 17.8823 1 20.0377 2.27246 21.376C3.54491 22.7143 5.59149 22.7155 9.68571 22.7155H12.9429C17.0371 22.7155 19.0847 22.7155 20.3561 21.376C21.2345 20.4526 21.507 19.1406 21.5906 17.0012" stroke="white" stroke-width="1.5"/>
<path d="M5.34375 4.42852L9.39889 1.59766C9.96932 1.2076 10.635 1 11.3152 1C11.9954 1 12.661 1.2076 13.2315 1.59766L17.2866 4.42852" stroke="white" stroke-width="1.5" stroke-linecap="round"/>
<path d="M18.3594 13.5703H18.3694" stroke="white" stroke-width="2" stroke-linecap="round" stroke-linejoin="round"/>
</svg>
