<svg width="90" height="90" viewBox="0 0 90 90" fill="none" xmlns="http://www.w3.org/2000/svg">
<path d="M44.9962 5.03906e-08C36.4676 0.0172931 28.1205 2.46334 20.9318 7.0518L22.6347 9.51591C29.3525 5.25564 37.1369 2.9936 45.0898 2.9936C50.1983 2.9936 55.2694 3.92536 60.0411 5.74771L61.22 2.99547C56.0728 1.01517 50.6049 -0.00026118 45.0898 5.03906e-08H44.9962ZM64.3263 4.32575L63.1474 7.07799C73.3084 11.9258 81.0928 20.6558 84.7418 31.3018L87.6048 30.4412C84.9102 18.2423 77.1257 8.47563 64.3263 4.32575ZM44.9775 6.5485C37.7919 6.56908 30.7372 8.61034 24.6556 12.4403L44.7342 41.4427C50.5726 31.0025 54.97 20.1133 58.6377 9.01822C54.3151 7.38484 49.7118 6.5485 45.0898 6.5485H44.9775ZM50.479 8.21931L54.0531 12.6835L51.4333 14.7884L47.8592 10.3223L50.479 8.21931ZM18.1623 8.9677C4.14288 16.5022 1.04781 27.9153 0.404099 40.4136L3.39437 40.6007C4.59011 29.0192 10.5576 18.4481 19.8652 11.4299L18.1623 8.9677ZM38.7649 10.2905C40.2993 10.2905 41.7215 10.6872 42.863 11.4505C44.0044 12.212 44.9214 13.4618 44.9214 14.968C44.9214 16.4835 44.0044 17.7184 42.863 18.4855C41.7215 19.2526 40.2993 19.6455 38.7649 19.6455C37.2305 19.6455 35.8083 19.2526 34.6669 18.4855C33.5254 17.7184 32.6085 16.4835 32.6085 14.968C32.6085 13.4618 33.5254 12.212 34.6669 11.4505C35.8083 10.6872 37.2305 10.2905 38.7649 10.2905ZM61.744 10.3485C58.3196 21.4417 53.9408 32.1438 48.0651 42.2472L60.8458 38.4303C60.247 37.5136 59.9101 36.391 59.9101 35.2122C59.9101 32.4057 61.875 29.8237 64.6631 29.8237C67.4513 29.8237 69.4161 32.4057 69.4161 35.2122C69.4161 35.4367 69.3974 35.6613 69.3787 35.9045L81.3361 32.3309C77.9865 22.6952 70.9319 14.7772 61.744 10.3485ZM38.7649 13.6583C37.8293 13.6583 37.0246 13.9277 36.5381 14.2495C36.0516 14.5695 35.9767 14.8202 35.9767 14.968C35.9767 15.1158 36.0516 15.3665 36.5381 15.6865C37.0246 16.0158 37.8293 16.2777 38.7649 16.2777C39.7005 16.2777 40.5052 16.0158 40.9917 15.6865C41.4782 15.3665 41.5531 15.1158 41.5531 14.968C41.5531 14.8202 41.4782 14.5695 40.9917 14.2495C40.5052 13.9277 39.7005 13.6583 38.7649 13.6583ZM21.8862 14.3543C13.473 20.7494 8.06691 30.3289 6.94602 40.8252C18.6676 40.9375 30.363 41.162 41.7402 42.9956L38.1661 37.8316L34.7043 39.7213L33.095 36.7652L36.2387 35.0438L25.5725 19.6829L21.2499 23.1069L19.1541 20.45L23.6451 16.8951L21.8862 14.3543ZM65.5988 16.9326L67.8817 20.6933L65 22.452L62.717 18.6913L65.5988 16.9326ZM45.6699 21.2546L47.1294 24.2856L41.4782 26.9611L40.0187 23.9301L45.6699 21.2546ZM20.2769 25.2585C23.458 25.2585 25.8158 28.1773 25.8158 31.4328C25.8158 34.6883 23.458 37.6071 20.2769 37.6071C17.0957 37.6071 14.7379 34.6883 14.7379 31.4328C14.7379 28.1773 17.0957 25.2585 20.2769 25.2585ZM76.0404 26.9985L76.7328 32.1625L73.4019 32.6115L72.7096 27.4476L76.0404 26.9985ZM20.2769 28.6263C19.2103 28.6263 18.1062 29.7302 18.1062 31.4328C18.1062 33.1354 19.2103 34.2393 20.2769 34.2393C21.3435 34.2393 22.4475 33.1354 22.4475 31.4328C22.4475 29.7302 21.3435 28.6263 20.2769 28.6263ZM64.6631 33.1915C64.0643 33.1915 63.2784 33.9212 63.2784 35.2122C63.2784 36.5032 64.0643 37.2329 64.6631 37.2329C65.2619 37.2329 66.0479 36.5032 66.0479 35.2122C66.0479 33.9212 65.2619 33.1915 64.6631 33.1915ZM88.5778 33.678L85.6961 34.52C86.5569 37.9065 87.006 41.4052 87.006 44.904C87.006 53.7164 84.2365 62.3043 79.0718 69.4515L81.4296 71.3038C87.006 63.6327 90 54.39 90 44.904C90 41.1246 89.5322 37.3452 88.5778 33.678ZM82.2904 35.549L59.0868 42.4904L60.958 43.8188L59.0119 46.5505L55.0074 43.7066L48.6826 45.5963C57.122 53.6229 66.9648 60.1339 76.265 67.2438C80.7186 60.7327 82.1407 52.9119 83.4506 44.904C83.9558 41.7794 83.0576 38.5987 82.2904 35.549ZM0.192646 43.7814C0.173934 44.1556 0.192646 44.5298 0.173934 44.904C-0.776666 58.0571 1.86929 70.8548 15.6249 78.8065L17.5074 76.4678C8.39812 68.516 3.17169 57.0094 3.17356 44.904V43.9685L0.192646 43.7814ZM6.73644 44.193V44.904C6.73644 49.0202 7.39512 53.099 8.69191 57.0094L10.7484 52.6125L13.7986 54.0345L10.406 61.294C12.6403 66.0276 15.8158 70.2374 19.7342 73.6987L41.7215 46.3821L17.5635 44.8666L12.9602 49.4505L10.58 47.0557L13.0538 44.5859L6.73644 44.193ZM75.5164 46.644C75.9468 46.6253 76.3772 46.6815 76.8076 46.8311C78.1549 47.2428 79.1093 48.3466 79.5584 49.6002C80.0075 50.8164 80.0075 52.2009 79.5771 53.5667C79.1654 54.9139 78.3421 56.0552 77.2941 56.8223C76.2088 57.552 74.8054 57.9262 73.4394 57.4958C72.9528 57.3462 72.5224 57.1029 72.1482 56.8036L70.6886 58.4688L65.5239 54.0158L67.732 51.4712L70.4453 53.81C70.2582 52.8183 70.3331 51.7706 70.6512 50.7602C71.0816 49.3944 71.8862 48.2718 72.9528 47.5234C73.7013 46.9995 74.5995 46.6627 75.5164 46.644ZM26.6579 47.6731L32.2155 49.7686L31.0179 52.9119L25.4603 50.8164L26.6579 47.6731ZM46.9985 48.5337L47.9902 64.3624C48.8884 64.5495 49.7118 64.8489 50.4416 65.2792C51.6953 66.0089 52.7619 67.2625 52.7619 68.8528C52.7619 70.4432 51.6953 71.6967 50.4416 72.4264C49.8615 72.7632 49.2253 73.0251 48.5516 73.2122L49.1691 83.035C51.2462 82.8105 53.2859 82.4176 55.2881 81.875L55.9431 76.4304L59.2739 76.842L58.8061 80.715C64.7567 78.451 70.0337 74.7278 74.1879 69.9006C70.3143 66.8508 65.6923 64.6805 62.5486 60.7514L61.2013 64.5121L58.0202 63.3895L59.7417 58.5436C54.4648 55.9242 51.1714 51.9203 46.9985 48.5337ZM43.6863 49.3383L22.354 75.7942C28.9408 80.6401 36.9124 83.2595 45.0898 83.2595H45.8008L45.1833 73.4929C43.836 73.3993 42.601 73.0439 41.5718 72.4264C40.3181 71.6967 39.2514 70.4432 39.2514 68.8528C39.2514 67.2625 40.3181 66.0089 41.5718 65.2792C42.4513 64.7553 43.4992 64.4185 44.622 64.2689L43.6863 49.3383ZM75.61 50.0118C75.4229 49.9931 75.1983 50.068 74.8989 50.2551C74.506 50.5357 74.0943 51.0783 73.8697 51.7706C73.6639 52.4629 73.7013 53.1364 73.851 53.5854C74.0194 54.0345 74.244 54.2216 74.4498 54.2777C74.6744 54.3526 74.9551 54.3151 75.348 54.0532C75.7223 53.7913 76.1527 53.2487 76.3772 52.5564C76.5831 51.8641 76.5456 51.1719 76.3959 50.7415C76.2275 50.2925 76.003 50.1054 75.7971 50.0305C75.741 50.0118 75.6849 50.0118 75.61 50.0118ZM20.726 55.6061C21.5306 55.6248 22.3353 55.8119 23.0838 56.1674C25.7597 57.4584 27.0695 60.6765 25.7784 63.3521C24.4872 66.0463 21.1564 67.0379 18.4805 65.747C15.8008 64.456 14.5022 61.2566 15.7896 58.5623C16.7215 56.6352 18.6863 55.5874 20.726 55.6061ZM20.5576 58.9552C19.8091 58.9739 19.1354 59.3668 18.8173 60.0217C18.3682 60.9759 18.7986 62.1733 19.94 62.7159C21.0815 63.2585 22.2791 62.8469 22.7469 61.8927C23.196 60.9572 22.7656 59.7598 21.6242 59.2172C21.2686 59.0301 20.8944 58.9552 20.5576 58.9552ZM46.0067 67.5431C44.8839 67.5431 43.8735 67.8425 43.2747 68.1793C42.6758 68.5347 42.6197 68.7967 42.6197 68.8528C42.6197 68.9089 42.6758 69.1709 43.2747 69.5264C43.8735 69.8632 44.8839 70.1625 46.0067 70.1625C47.1294 70.1625 48.1399 69.8632 48.7387 69.5264C49.3375 69.1709 49.3937 68.9089 49.3937 68.8528C49.3937 68.7967 49.3375 68.5347 48.7387 68.1793C48.1399 67.8425 47.1294 67.5431 46.0067 67.5431ZM76.976 72.1084C69.9775 80.3033 60.116 85.486 49.3937 86.5899L49.5808 89.5835C61.5569 90.2009 72.8967 87.4693 79.3338 73.9606L76.976 72.1084ZM30.9618 72.6697L36.22 73.1561L35.9206 76.5239L30.6624 76.0375L30.9618 72.6697ZM20.1272 78.5633L18.2559 80.9021C25.0112 89.3216 35.1347 90.5751 45.0898 89.808C45.464 89.7706 45.8383 89.808 46.2125 89.7893L46.0254 86.7957C45.7073 86.8144 45.4079 86.8144 45.0898 86.8144C36.1077 86.8144 27.3502 83.9144 20.1272 78.5633Z" fill="#AAA9A9"/>
</svg>
