<svg width="94" height="94" viewBox="0 0 94 94" fill="none" xmlns="http://www.w3.org/2000/svg">
<path d="M0 89.7273C0 92.0346 1.92273 94 4.27273 94H59.8182C62.2109 94 64.0909 92.0346 64.0909 89.7273V85.4545H0V89.7273ZM32.0455 34.1818C16.0227 34.1818 0 42.7273 0 59.8182H64.0909C64.0909 42.7273 48.0682 34.1818 32.0455 34.1818ZM11.1945 51.2727C15.9373 44.65 26.0209 42.7273 32.0455 42.7273C38.07 42.7273 48.1536 44.65 52.8964 51.2727H11.1945ZM0 68.3636H64.0909V76.9091H0V68.3636ZM72.6364 17.0909V0H64.0909V17.0909H42.7273L43.71 25.6364H84.5573L78.5755 85.4545H72.6364V94H79.9855C83.5745 94 86.5227 91.2227 86.95 87.7191L94 17.0909H72.6364Z" fill="#828181"/>
</svg>
