<svg width="16" height="16" viewBox="0 0 16 16" fill="none" xmlns="http://www.w3.org/2000/svg">
<path d="M6.18182 2.66667H9.81818C9.81818 2.22464 9.62662 1.80072 9.28565 1.48816C8.94467 1.17559 8.48221 1 8 1C7.51779 1 7.05533 1.17559 6.71435 1.48816C6.37338 1.80072 6.18182 2.22464 6.18182 2.66667ZM5.09091 2.66667C5.09091 1.95942 5.3974 1.28115 5.94296 0.781049C6.48852 0.280952 7.22846 0 8 0C8.77154 0 9.51148 0.280952 10.057 0.781049C10.6026 1.28115 10.9091 1.95942 10.9091 2.66667H15.4545C15.5992 2.66667 15.7379 2.71935 15.8402 2.81311C15.9425 2.90688 16 3.03406 16 3.16667C16 3.29927 15.9425 3.42645 15.8402 3.52022C15.7379 3.61399 15.5992 3.66667 15.4545 3.66667H14.5018L13.6167 13.402C13.5523 14.1102 13.2 14.7704 12.6295 15.2516C12.059 15.7328 11.312 15.9999 10.5367 16H5.46327C4.68799 15.9999 3.94105 15.7328 3.37055 15.2516C2.80005 14.7704 2.44767 14.1102 2.38327 13.402L1.49818 3.66667H0.545455C0.400791 3.66667 0.262052 3.61399 0.15976 3.52022C0.0574673 3.42645 0 3.29927 0 3.16667C0 3.03406 0.0574673 2.90688 0.15976 2.81311C0.262052 2.71935 0.400791 2.66667 0.545455 2.66667H5.09091ZM6.90909 6.5C6.90909 6.36739 6.85162 6.24022 6.74933 6.14645C6.64704 6.05268 6.5083 6 6.36364 6C6.21897 6 6.08024 6.05268 5.97794 6.14645C5.87565 6.24022 5.81818 6.36739 5.81818 6.5V12.1667C5.81818 12.2993 5.87565 12.4265 5.97794 12.5202C6.08024 12.614 6.21897 12.6667 6.36364 12.6667C6.5083 12.6667 6.64704 12.614 6.74933 12.5202C6.85162 12.4265 6.90909 12.2993 6.90909 12.1667V6.5ZM9.63636 6C9.4917 6 9.35296 6.05268 9.25067 6.14645C9.14838 6.24022 9.09091 6.36739 9.09091 6.5V12.1667C9.09091 12.2993 9.14838 12.4265 9.25067 12.5202C9.35296 12.614 9.4917 12.6667 9.63636 12.6667C9.78103 12.6667 9.91977 12.614 10.0221 12.5202C10.1244 12.4265 10.1818 12.2993 10.1818 12.1667V6.5C10.1818 6.36739 10.1244 6.24022 10.0221 6.14645C9.91977 6.05268 9.78103 6 9.63636 6Z" fill="#3E3E3E"/>
</svg>
