<svg width="22" height="22" viewBox="0 0 22 22" fill="none" xmlns="http://www.w3.org/2000/svg">
<path fill-rule="evenodd" clip-rule="evenodd" d="M16.1033 5.82093C16.6011 6.27686 16.635 7.04998 16.1791 7.54775C14.7697 9.08644 14.092 10.0246 13.0741 11.846C12.6898 12.5337 12.2641 13.4874 11.9249 14.2987C11.7578 14.6984 11.6161 15.0525 11.5164 15.3065C11.4665 15.4334 11.4273 15.5349 11.4007 15.6042L11.3706 15.683L11.3632 15.7026L11.3614 15.7072C11.2097 16.1103 10.8567 16.4048 10.4328 16.4808C10.0089 16.5568 9.57623 16.4041 9.29398 16.0787L5.79907 12.0507C5.3567 11.5409 5.4114 10.7689 5.92125 10.3266C6.43111 9.88419 7.20304 9.93889 7.64541 10.4487L9.83293 12.9699C10.1558 12.2165 10.5531 11.3463 10.9403 10.6535C12.0505 8.66689 12.8394 7.5749 14.3765 5.8967C14.8324 5.39893 15.6055 5.36501 16.1033 5.82093Z" fill="white"/>
</svg>
