<svg width="18" height="19" viewBox="0 0 18 19" fill="none" xmlns="http://www.w3.org/2000/svg">
<path d="M1.27344 4.70312H3.00483H16.856" stroke="#DC0301" stroke-width="1.56833" stroke-linecap="round" stroke-linejoin="round"/>
<path d="M5.6049 4.70697V3.13864C5.6049 2.72269 5.78732 2.32378 6.11202 2.02966C6.43672 1.73555 6.8771 1.57031 7.3363 1.57031H10.7991C11.2583 1.57031 11.6987 1.73555 12.0234 2.02966C12.3481 2.32378 12.5305 2.72269 12.5305 3.13864V4.70697M15.1276 4.70697V15.6853C15.1276 16.1012 14.9452 16.5001 14.6205 16.7942C14.2958 17.0884 13.8554 17.2536 13.3962 17.2536H4.73921C4.28001 17.2536 3.83963 17.0884 3.51493 16.7942C3.19023 16.5001 3.00781 16.1012 3.00781 15.6853V4.70697H15.1276Z" stroke="#DC0301" stroke-width="1.56833" stroke-linecap="round" stroke-linejoin="round"/>
<path d="M7.34375 8.625V13.33" stroke="#DC0301" stroke-width="1.56833" stroke-linecap="round" stroke-linejoin="round"/>
<path d="M10.7969 8.625V13.33" stroke="#DC0301" stroke-width="1.56833" stroke-linecap="round" stroke-linejoin="round"/>
</svg>
